<svg width="114" height="39" viewBox="0 0 114 39" fill="none" xmlns="http://www.w3.org/2000/svg">
<path d="M35.6301 25.9962C33.7261 25.9962 32.1954 25.4642 31.0381 24.4002C29.8994 23.3175 29.3301 21.7868 29.3301 19.8082H32.9141C32.9327 20.7228 33.1474 21.4508 33.5581 21.9922C33.9687 22.5335 34.6314 22.8042 35.5461 22.8042C36.4047 22.8042 37.0301 22.5522 37.4221 22.0482C37.8141 21.5255 38.0101 20.8442 38.0101 20.0042V6.06015H41.5941V20.0042C41.5941 21.9268 41.0527 23.4108 39.9701 24.4562C38.9061 25.4828 37.4594 25.9962 35.6301 25.9962ZM51.9884 25.9962C50.6444 25.9962 49.4311 25.6882 48.3484 25.0722C47.2844 24.4562 46.4351 23.6068 45.8004 22.5242C45.1844 21.4228 44.8764 20.1535 44.8764 18.7162C44.8764 17.2788 45.1937 16.0188 45.8284 14.9362C46.4631 13.8348 47.3124 12.9762 48.3764 12.3602C49.4591 11.7442 50.6724 11.4362 52.0164 11.4362C53.3417 11.4362 54.5364 11.7442 55.6004 12.3602C56.6831 12.9762 57.5324 13.8348 58.1484 14.9362C58.7831 16.0188 59.1004 17.2788 59.1004 18.7162C59.1004 20.1535 58.7831 21.4228 58.1484 22.5242C57.5324 23.6068 56.6831 24.4562 55.6004 25.0722C54.5177 25.6882 53.3137 25.9962 51.9884 25.9962ZM51.9884 22.8882C52.9217 22.8882 53.7337 22.5428 54.4244 21.8522C55.1151 21.1428 55.4604 20.0975 55.4604 18.7162C55.4604 17.3348 55.1151 16.2988 54.4244 15.6082C53.7337 14.8988 52.9311 14.5442 52.0164 14.5442C51.0644 14.5442 50.2431 14.8988 49.5524 15.6082C48.8804 16.2988 48.5444 17.3348 48.5444 18.7162C48.5444 20.0975 48.8804 21.1428 49.5524 21.8522C50.2431 22.5428 51.0551 22.8882 51.9884 22.8882ZM70.5369 25.9962C69.4915 25.9962 68.5769 25.8002 67.7929 25.4082C67.0089 25.0162 66.3742 24.4655 65.8889 23.7562L65.4969 25.6602H62.3049V5.50016H65.8889V13.7602C66.3369 13.1442 66.9249 12.6028 67.6529 12.1362C68.3995 11.6695 69.3609 11.4362 70.5369 11.4362C71.8435 11.4362 73.0102 11.7535 74.0369 12.3882C75.0635 13.0228 75.8755 13.8908 76.4729 14.9922C77.0702 16.0935 77.3689 17.3442 77.3689 18.7442C77.3689 20.1442 77.0702 21.3948 76.4729 22.4962C75.8755 23.5788 75.0635 24.4375 74.0369 25.0722C73.0102 25.6882 71.8435 25.9962 70.5369 25.9962ZM69.7809 22.8602C70.9195 22.8602 71.8622 22.4775 72.6089 21.7122C73.3555 20.9468 73.7289 19.9575 73.7289 18.7442C73.7289 17.5308 73.3555 16.5322 72.6089 15.7482C71.8622 14.9642 70.9195 14.5722 69.7809 14.5722C68.6235 14.5722 67.6715 14.9642 66.9249 15.7482C66.1969 16.5135 65.8329 17.5028 65.8329 18.7162C65.8329 19.9295 66.1969 20.9282 66.9249 21.7122C67.6715 22.4775 68.6235 22.8602 69.7809 22.8602ZM81.2145 25.6602V14.7682H79.3105V11.7722H81.2145V10.1482C81.2145 8.46816 81.6345 7.27349 82.4745 6.56416C83.3332 5.85482 84.4905 5.50016 85.9465 5.50016H87.4865V8.55216H86.5065C85.8905 8.55216 85.4518 8.67349 85.1905 8.91615C84.9292 9.15882 84.7985 9.56949 84.7985 10.1482V11.7722H87.7945V14.7682H84.7985V25.6602H81.2145ZM92.565 9.61616C91.9117 9.61616 91.3703 9.42016 90.941 9.02816C90.5303 8.63616 90.325 8.14149 90.325 7.54416C90.325 6.94682 90.5303 6.46149 90.941 6.08815C91.3703 5.69616 91.9117 5.50016 92.565 5.50016C93.2183 5.50016 93.7503 5.69616 94.161 6.08815C94.5903 6.46149 94.805 6.94682 94.805 7.54416C94.805 8.14149 94.5903 8.63616 94.161 9.02816C93.7503 9.42016 93.2183 9.61616 92.565 9.61616ZM90.773 25.6602V11.7722H94.357V25.6602H90.773ZM98.0978 25.6602V11.7722H101.262L101.542 14.1242C101.971 13.3028 102.587 12.6495 103.39 12.1642C104.211 11.6788 105.172 11.4362 106.274 11.4362C107.991 11.4362 109.326 11.9775 110.278 13.0602C111.23 14.1428 111.706 15.7295 111.706 17.8202V25.6602H108.122V18.1562C108.122 16.9615 107.879 16.0468 107.394 15.4122C106.908 14.7775 106.152 14.4602 105.126 14.4602C104.118 14.4602 103.287 14.8148 102.634 15.5242C101.999 16.2335 101.682 17.2228 101.682 18.4922V25.6602H98.0978Z" fill="#170F49"/>
<path d="M5 16.0207C5 7.17272 12.1727 0 21.0207 0V22.1307C21.0207 30.9787 13.848 38.1514 5 38.1514V16.0207Z" fill="#6942FF"/>
<path d="M0 26C0 23.2386 2.23858 21 5 21C7.76142 21 10 23.2386 10 26V34C10 36.7614 7.76142 39 5 39C2.23858 39 0 36.7614 0 34V26Z" fill="#6942FF"/>
</svg>
