<svg width="30" height="25" viewBox="0 0 30 25" fill="none" xmlns="http://www.w3.org/2000/svg">
<path d="M25.1831 0H4.464C3.28042 0.00115437 2.14563 0.485686 1.30871 1.34725C0.471794 2.20881 0.00112135 3.37701 0 4.59544V20.1112C0.00149428 21.3295 0.472287 22.4975 1.30913 23.359C2.14596 24.2205 3.28053 24.7051 4.464 24.7067H25.1831C26.3665 24.7051 27.5011 24.2205 28.3379 23.359C29.1748 22.4975 29.6456 21.3295 29.6471 20.1112V4.59544C29.6459 3.37701 29.1753 2.20881 28.3383 1.34725C27.5014 0.485686 26.3666 0.00115437 25.1831 0ZM28.2353 20.1112C28.2342 20.9442 27.9122 21.7427 27.3401 22.3318C26.7679 22.9208 25.9922 23.2522 25.1831 23.2533H4.464C3.65484 23.2522 2.87914 22.9208 2.30698 22.3318C1.73482 21.7427 1.41289 20.9442 1.41176 20.1112V4.59544C1.41289 3.76246 1.73482 2.96392 2.30698 2.37491C2.87914 1.7859 3.65484 1.45449 4.464 1.45333H25.1831C25.9922 1.45449 26.7679 1.7859 27.3401 2.37491C27.9122 2.96392 28.2342 3.76246 28.2353 4.59544V20.1112Z" fill="#6942FF"/>
<path d="M24.2979 7.29578H14.8235C14.6363 7.29578 14.4568 7.3723 14.3244 7.50851C14.192 7.64473 14.1176 7.82947 14.1176 8.02211C14.1176 8.21474 14.192 8.39949 14.3244 8.5357C14.4568 8.67191 14.6363 8.74844 14.8235 8.74844H24.2979C24.4851 8.74844 24.6646 8.67191 24.797 8.5357C24.9294 8.39949 25.0038 8.21474 25.0038 8.02211C25.0038 7.82947 24.9294 7.64473 24.797 7.50851C24.6646 7.3723 24.4851 7.29578 24.2979 7.29578Z" fill="#6942FF"/>
<path d="M24.2979 12.0758H14.8235C14.6363 12.0758 14.4568 12.1523 14.3244 12.2885C14.192 12.4248 14.1176 12.6095 14.1176 12.8021C14.1176 12.9948 14.192 13.1795 14.3244 13.3157C14.4568 13.4519 14.6363 13.5285 14.8235 13.5285H24.2979C24.4851 13.5285 24.6646 13.4519 24.797 13.3157C24.9294 13.1795 25.0038 12.9948 25.0038 12.8021C25.0038 12.6095 24.9294 12.4248 24.797 12.2885C24.6646 12.1523 24.4851 12.0758 24.2979 12.0758Z" fill="#6942FF"/>
<path d="M24.2979 16.8586H5.34919C5.16198 16.8586 4.98244 16.9352 4.85006 17.0714C4.71768 17.2076 4.64331 17.3923 4.64331 17.585C4.64331 17.7776 4.71768 17.9624 4.85006 18.0986C4.98244 18.2348 5.16198 18.3113 5.34919 18.3113H24.2979C24.4851 18.3113 24.6647 18.2348 24.797 18.0986C24.9294 17.9624 25.0038 17.7776 25.0038 17.585C25.0038 17.3923 24.9294 17.2076 24.797 17.0714C24.6647 16.9352 24.4851 16.8586 24.2979 16.8586Z" fill="#6942FF"/>
<path d="M6.63527 13.5291H8.69645C9.2253 13.5295 9.73279 13.3143 10.1079 12.9306C10.4831 12.5468 10.6953 12.0258 10.6983 11.4814V9.35079C10.6976 8.80575 10.4868 8.28328 10.1123 7.89801C9.73781 7.51275 9.23014 7.29616 8.70069 7.29578H6.63527C6.10595 7.29616 5.59842 7.51279 5.22414 7.8981C4.84985 8.28341 4.63941 8.80588 4.63904 9.35079V11.4814C4.64165 12.0249 4.85303 12.5453 5.22703 12.9289C5.60103 13.3126 6.10729 13.5284 6.63527 13.5291ZM6.0508 9.35079C6.0508 9.19121 6.11238 9.03817 6.22199 8.92534C6.3316 8.8125 6.48026 8.74911 6.63527 8.74911H8.69645C8.85159 8.74911 9.0004 8.81245 9.11023 8.92525C9.22007 9.03804 9.28196 9.19108 9.28233 9.35079V11.4814C9.28196 11.6411 9.22007 11.7941 9.11023 11.9069C9.0004 12.0197 8.85159 12.0831 8.69645 12.0831H6.63527C6.48026 12.0831 6.3316 12.0197 6.22199 11.9068C6.11238 11.794 6.0508 11.641 6.0508 11.4814V9.35079Z" fill="#6942FF"/>
</svg>
