<svg width="35" height="42" viewBox="0 0 35 42" fill="none" xmlns="http://www.w3.org/2000/svg">
<path d="M33.9053 14.0452C33.7143 14.1599 29.1677 16.5804 29.1677 21.9474C29.382 28.068 34.9053 30.2145 35 30.2145C34.9053 30.3292 34.1661 33.1385 31.9767 36.0834C30.2391 38.6202 28.3105 41.1778 25.382 41.1778C22.5962 41.1778 21.5962 39.4871 18.3819 39.4871C14.9301 39.4871 13.9534 41.1778 11.3105 41.1778C8.38192 41.1778 6.31048 38.4831 4.47818 35.9702C2.09774 32.6812 0.0744446 27.5199 0.00301585 22.5641C-0.0451209 19.9379 0.479725 17.3565 1.81203 15.1639C3.69247 12.1028 7.04962 10.0248 10.7158 9.95631C13.5248 9.86545 16.0248 11.8064 17.7391 11.8064C19.3819 11.8064 22.4534 9.95631 25.9285 9.95631C27.4285 9.9578 31.4286 10.3913 33.9053 14.0452ZM17.5015 9.43198C17.0015 7.03377 18.3819 4.63555 19.6677 3.10576C21.3105 1.25571 23.9052 0 26.1428 0C26.2857 2.39821 25.3804 4.75025 23.7624 6.46326C22.3105 8.31331 19.8105 9.70606 17.5015 9.43198Z" fill="#283544"/>
</svg>
