<svg width="31" height="25" viewBox="0 0 31 25" fill="none" xmlns="http://www.w3.org/2000/svg">
<path fill-rule="evenodd" clip-rule="evenodd" d="M2.15172 23.9741V20.6055C2.15198 20.4467 2.21337 20.2945 2.32243 20.1821C2.43149 20.0698 2.57935 20.0065 2.73363 20.0062H5.53051C5.68485 20.0064 5.8328 20.0697 5.94193 20.182C6.05107 20.2944 6.1125 20.4467 6.11276 20.6055V23.9741H7.68106V17.2672C7.68124 17.1083 7.74264 16.9559 7.85179 16.8436C7.96095 16.7312 8.10894 16.668 8.26331 16.6678H11.0602C11.2146 16.668 11.3626 16.7312 11.4717 16.8436C11.5809 16.9559 11.6423 17.1083 11.6424 17.2672V23.9741H13.2107V12.7676C13.2107 12.6889 13.2258 12.611 13.2551 12.5383C13.2844 12.4656 13.3273 12.3995 13.3814 12.3439C13.3915 12.3336 13.4023 12.3238 13.4135 12.3148C13.5187 12.2206 13.6533 12.1686 13.7927 12.1682H16.5895C16.7438 12.1686 16.8916 12.2321 17.0004 12.3446C17.0545 12.4002 17.0975 12.4663 17.1267 12.539C17.156 12.6117 17.1711 12.6896 17.1711 12.7683V23.9748H18.7401V8.47843C18.7403 8.31958 18.8018 8.16731 18.9109 8.05502C19.0201 7.94273 19.168 7.87957 19.3223 7.87938H22.1192C22.2735 7.87966 22.4214 7.94285 22.5305 8.05512C22.6396 8.1674 22.7011 8.3196 22.7015 8.47843V23.9741H24.2698V4.3504C24.2699 4.19148 24.3313 4.03913 24.4405 3.92676C24.5497 3.8144 24.6976 3.75119 24.852 3.751H27.6486C27.8029 3.75119 27.9509 3.8144 28.0601 3.92676C28.1692 4.03913 28.2306 4.19148 28.2308 4.3504V23.9741H30.0157C30.0633 23.9726 30.1108 23.9809 30.1552 23.9987C30.1996 24.0164 30.2402 24.0431 30.2744 24.0773C30.3086 24.1114 30.3358 24.1523 30.3544 24.1975C30.373 24.2427 30.3825 24.2912 30.3825 24.3403C30.3825 24.3894 30.373 24.4379 30.3544 24.4831C30.3358 24.5283 30.3086 24.5692 30.2744 24.6033C30.2402 24.6375 30.1996 24.6642 30.1552 24.6819C30.1108 24.6996 30.0633 24.708 30.0157 24.7065H0.36685C0.319213 24.708 0.271768 24.6996 0.227327 24.6819C0.182887 24.6642 0.142357 24.6375 0.108143 24.6033C0.073928 24.5692 0.0467254 24.5283 0.0281488 24.4831C0.0095722 24.4379 0 24.3894 0 24.3403C0 24.2912 0.0095722 24.2427 0.0281488 24.1975C0.0467254 24.1523 0.073928 24.1114 0.108143 24.0773C0.142357 24.0431 0.182887 24.0164 0.227327 23.9987C0.271768 23.9809 0.319213 23.9726 0.36685 23.9741H2.15172ZM5.40131 23.9741V20.7386H2.86317V23.9741H5.40131ZM8.39251 23.9741H10.9307V17.4002H8.39251V23.9741ZM13.9222 23.9741H16.4603V12.9009H13.9222V23.9741ZM19.4515 23.9741H21.9897V8.61178H19.4515V23.9741ZM24.9812 23.9741H27.5194V4.4834H24.9812V23.9741ZM14.2966 3.18078C13.3976 3.18166 12.5223 3.4778 11.798 4.02614C11.0737 4.57447 10.5383 5.3464 10.2695 6.22961C10.0008 7.11283 10.0129 8.06127 10.3039 8.93696C10.5949 9.81266 11.1498 10.5699 11.8877 11.0986L9.89131 13.0649L7.82105 12.5071C7.76484 12.4922 7.70593 12.4917 7.64948 12.5056C7.59302 12.5195 7.54074 12.5475 7.49721 12.587L1.70845 17.8704C1.64095 17.9353 1.60072 18.0248 1.59632 18.1198C1.59191 18.2147 1.62369 18.3077 1.68487 18.3789C1.74606 18.4502 1.83183 18.494 1.92394 18.5011C2.01604 18.5082 2.1072 18.4781 2.17803 18.417L7.82544 13.2639L9.90346 13.8237C9.96585 13.8403 10.0315 13.8392 10.0933 13.8204C10.1551 13.8015 10.2108 13.7657 10.2543 13.7167L12.5283 11.4771C13.298 11.8415 14.1563 11.9592 14.9919 11.815C15.8274 11.6709 16.6015 11.2715 17.2138 10.6687C17.826 10.0659 18.2481 9.28754 18.4253 8.43469C18.6024 7.58183 18.5264 6.69386 18.2071 5.88604L18.4969 5.60058L20.1927 6.12565C20.254 6.14452 20.3191 6.14596 20.3812 6.12982C20.4433 6.11368 20.4999 6.08056 20.5452 6.03397L25.7379 1.35968L25.3887 3.06688C25.3791 3.1139 25.3786 3.16242 25.3872 3.20965C25.3958 3.25688 25.4134 3.3019 25.439 3.34212C25.4645 3.38234 25.4975 3.41697 25.5361 3.44404C25.5747 3.47111 25.6181 3.49007 25.6638 3.49985C25.7095 3.50962 25.7566 3.51002 25.8025 3.50101C25.8483 3.49201 25.892 3.47377 25.931 3.44736C25.97 3.42095 26.0036 3.38687 26.0298 3.34709C26.056 3.3073 26.0743 3.26259 26.0836 3.21551L26.6497 0.447396C26.6623 0.390795 26.6616 0.331918 26.6477 0.275636C26.6339 0.219355 26.6071 0.167288 26.5698 0.123745C26.5325 0.0802014 26.4856 0.0464334 26.4331 0.0252355C26.3806 0.00403767 26.3239 -0.0039805 26.2678 0.00184456L23.5263 0.290428C23.4799 0.295331 23.4349 0.309586 23.3939 0.332379C23.3529 0.355172 23.3167 0.386056 23.2873 0.42327C23.2578 0.460483 23.2358 0.503296 23.2225 0.549264C23.2092 0.595233 23.2047 0.643456 23.2095 0.691181C23.2143 0.738907 23.2281 0.785199 23.2503 0.827415C23.2724 0.869631 23.3024 0.906944 23.3385 0.937225C23.3747 0.967505 23.4163 0.990159 23.4609 1.00389C23.5056 1.01763 23.5524 1.02217 23.5988 1.01727L25.2319 0.845371L20.2092 5.36513L18.5039 4.83693C18.444 4.81865 18.3805 4.81699 18.3198 4.83211C18.2591 4.84723 18.2033 4.87861 18.1582 4.92305L17.8694 5.20781C17.4886 4.58682 16.9613 4.07516 16.3367 3.72048C15.712 3.36581 15.0103 3.17966 14.297 3.17939L14.2966 3.18078ZM16.7795 4.97236C16.205 4.38103 15.4491 4.01305 14.6407 3.93111C13.8322 3.84917 13.0211 4.05835 12.3457 4.523C11.6703 4.98765 11.1722 5.67902 10.9364 6.47932C10.7006 7.27962 10.7417 8.13932 11.0526 8.91194C11.3635 9.68456 11.9251 10.3223 12.6415 10.7165C13.358 11.1107 14.1851 11.2369 14.9818 11.0738C15.7786 10.9106 16.4957 10.468 17.0111 9.82152C17.5264 9.17503 17.8081 8.36459 17.808 7.52829C17.8086 7.0535 17.7181 6.58327 17.5416 6.14464C17.365 5.706 17.1061 5.3076 16.7795 4.97236ZM13.9431 4.74802C13.6035 4.83059 13.301 5.02869 13.0844 5.31028C12.8678 5.59187 12.7498 5.94046 12.7496 6.29964C12.7496 7.52412 13.4826 7.70401 14.216 7.88355C14.6751 7.99607 15.1346 8.10893 15.1346 8.75486C15.1346 8.98327 15.0464 9.20233 14.8896 9.36384C14.7327 9.52536 14.5199 9.61609 14.298 9.61609C14.0761 9.61609 13.8633 9.52536 13.7064 9.36384C13.5495 9.20233 13.4614 8.98327 13.4614 8.75486C13.4614 8.65769 13.4239 8.5645 13.3571 8.49579C13.2904 8.42708 13.1999 8.38848 13.1055 8.38848C13.0111 8.38848 12.9206 8.42708 12.8538 8.49579C12.7871 8.5645 12.7496 8.65769 12.7496 8.75486C12.7496 9.11422 12.8674 9.46305 13.0841 9.74485C13.3007 10.0267 13.6034 10.2249 13.9431 10.3075C13.9517 10.3981 13.9927 10.4821 14.0582 10.5433C14.1237 10.6044 14.2089 10.6383 14.2973 10.6383C14.3857 10.6383 14.4709 10.6044 14.5364 10.5433C14.6019 10.4821 14.6429 10.3981 14.6515 10.3075C14.9912 10.2251 15.2938 10.0271 15.5105 9.74544C15.7271 9.46381 15.845 9.11513 15.845 8.7559C15.845 7.53141 15.112 7.35188 14.3789 7.17199C13.9195 7.05947 13.4604 6.94696 13.4604 6.30068C13.4604 6.07227 13.5485 5.85321 13.7054 5.69169C13.8623 5.53018 14.0751 5.43944 14.297 5.43944C14.5189 5.43944 14.7316 5.53018 14.8885 5.69169C15.0454 5.85321 15.1336 6.07227 15.1336 6.30068C15.1321 6.34972 15.1402 6.39856 15.1574 6.44431C15.1747 6.49006 15.2006 6.53178 15.2338 6.567C15.267 6.60223 15.3067 6.63023 15.3506 6.64935C15.3945 6.66848 15.4416 6.67833 15.4893 6.67833C15.537 6.67833 15.5841 6.66848 15.628 6.64935C15.6719 6.63023 15.7116 6.60223 15.7448 6.567C15.778 6.53178 15.8039 6.49006 15.8212 6.44431C15.8384 6.39856 15.8465 6.34972 15.845 6.30068C15.8452 5.94127 15.7274 5.59235 15.5108 5.31051C15.2941 5.02867 14.9913 4.83046 14.6515 4.74802C14.6429 4.65745 14.6019 4.57342 14.5364 4.51228C14.4709 4.45114 14.3857 4.41728 14.2973 4.41728C14.2089 4.41728 14.1237 4.45114 14.0582 4.51228C13.9927 4.57342 13.9517 4.65745 13.9431 4.74802Z" fill="#6942FF"/>
</svg>
