<svg width="24" height="25" viewBox="0 0 24 25" fill="none" xmlns="http://www.w3.org/2000/svg">
<path d="M18.5576 18.6888L14.6182 17.3165C14.1813 17.1645 13.6946 17.2645 13.3481 17.5776L12.0458 18.7547C11.8672 18.9162 11.6147 18.9701 11.3869 18.8952C10.636 18.6485 9.07379 18.1355 7.72766 16.7495C6.38118 15.3634 5.88297 13.7553 5.6434 12.9826C5.57075 12.748 5.62298 12.4879 5.77984 12.3042L6.92326 10.9638C7.22761 10.607 7.32488 10.1059 7.17689 9.65623L5.84383 5.60094C5.60276 4.86746 5.02051 4.32582 4.28624 4.15208C3.55866 3.98009 2.8127 4.20275 2.29058 4.74786C0.495608 6.62237 -2.85052 11.836 4.82534 19.7372C8.5033 23.5236 11.5813 24.7045 13.9907 24.7045C16.6093 24.7045 18.4379 23.3089 19.3863 22.3466C19.916 21.809 20.1323 21.0411 19.9651 20.2921C19.7963 19.5362 19.2703 18.9368 18.5578 18.6887L18.5576 18.6888ZM18.9548 21.8962C17.9733 22.8921 16.3186 24.0747 13.9963 24.0747C13.9809 24.0747 13.9652 24.0747 13.9496 24.0746C11.2494 24.0563 8.32549 22.4465 5.25952 19.2899C2.19342 16.1337 0.629711 13.1239 0.611711 10.344C0.596142 7.92795 1.75376 6.20838 2.72776 5.19136C3.01638 4.88994 3.40143 4.72723 3.80201 4.72723C3.91685 4.72723 4.03287 4.74067 4.14838 4.7679C4.6732 4.89216 5.08938 5.27906 5.26167 5.80315L6.59473 9.85844C6.67257 10.0949 6.62134 10.3584 6.4613 10.5461L5.31788 11.8865C5.01973 12.2362 4.92012 12.7296 5.0579 13.1743C5.31202 13.9946 5.84102 15.7016 7.29296 17.1963C8.74456 18.6908 10.4029 19.2354 11.2 19.4972C11.6319 19.6392 12.1113 19.5365 12.4509 19.2295L13.753 18.0524C13.9353 17.8877 14.1911 17.835 14.4209 17.9151L18.3602 19.2874C18.8693 19.4647 19.2453 19.8931 19.3659 20.4335C19.4851 20.967 19.3314 21.5137 18.9545 21.8959L18.9548 21.8962Z" fill="#6942FF"/>
<path d="M5.90755 3.39023C5.97987 3.39023 6.05252 3.36404 6.11095 3.31078C6.25408 3.18032 6.40241 3.05262 6.55139 2.93112C6.68431 2.82272 6.70691 2.62384 6.60161 2.48702C6.49631 2.35018 6.30329 2.32692 6.17022 2.43532C6.01252 2.56388 5.85566 2.699 5.70398 2.83721C5.57692 2.95285 5.56503 3.15276 5.67753 3.28356C5.73813 3.35422 5.82267 3.39023 5.90755 3.39023Z" fill="#6942FF"/>
<path d="M22.1558 6.27317C22.2112 6.37946 22.3172 6.43974 22.4267 6.43974C22.4757 6.43974 22.5254 6.42769 22.5716 6.40202C22.7211 6.31951 22.7772 6.12796 22.6969 5.97413C22.5303 5.65493 22.3463 5.34004 22.1501 5.03841C22.0557 4.89336 21.865 4.85461 21.724 4.95159C21.5831 5.04874 21.5453 5.24494 21.6397 5.38999C21.825 5.67473 21.9986 5.97189 22.1558 6.27317Z" fill="#6942FF"/>
<path d="M17.079 1.48919C17.3847 1.62362 17.6877 1.7751 17.9797 1.93969C18.0264 1.96605 18.0769 1.97846 18.1268 1.97846C18.2355 1.97846 18.3406 1.919 18.3965 1.81405C18.4779 1.66084 18.4233 1.46868 18.2745 1.38493C17.9651 1.21069 17.644 1.05007 17.32 0.907738C17.1644 0.839319 16.9837 0.91377 16.9169 1.07439C16.8506 1.23483 16.9231 1.4206 17.079 1.48919Z" fill="#6942FF"/>
<path d="M13.1833 0.631734C13.5163 0.637931 13.8526 0.660824 14.1829 0.699725C14.1948 0.701102 14.2067 0.701791 14.2182 0.701791C14.3722 0.701791 14.505 0.583024 14.5229 0.421912C14.5422 0.24858 14.4213 0.0921167 14.2529 0.0721512C13.903 0.0308409 13.5469 0.00657022 13.1944 3.10749e-05C13.0288 -0.00237872 12.8848 0.135666 12.8816 0.310032C12.8786 0.484567 13.0137 0.628636 13.1833 0.631734Z" fill="#6942FF"/>
<path d="M23.4145 8.80014C23.2483 8.83511 23.1411 9.00203 23.1753 9.17308C23.2419 9.50813 23.2935 9.85074 23.3285 10.1917C23.3452 10.3539 23.4785 10.4745 23.6335 10.4745C23.6442 10.4745 23.6553 10.4738 23.6661 10.4728C23.8349 10.4545 23.9571 10.2988 23.9392 10.1253C23.902 9.76446 23.8474 9.40152 23.777 9.04666C23.7428 8.87526 23.5804 8.76483 23.4145 8.80014Z" fill="#6942FF"/>
<path d="M11.1343 0.796115C11.1519 0.796115 11.1698 0.794566 11.1877 0.791296C11.5155 0.732258 11.8498 0.688881 12.1816 0.662372C12.3507 0.648946 12.4771 0.496959 12.464 0.323112C12.451 0.149265 12.3035 0.0189665 12.1341 0.0327367C11.7827 0.0607933 11.4286 0.106752 11.0816 0.169235C10.9145 0.199357 10.8028 0.363047 10.8321 0.534832C10.8584 0.688198 10.988 0.796115 11.1343 0.796115Z" fill="#6942FF"/>
<path d="M22.5865 7.20452C22.7146 7.51992 22.8293 7.84602 22.9272 8.17367C22.9679 8.30958 23.0892 8.39674 23.2207 8.39674C23.2506 8.39674 23.2811 8.39226 23.3112 8.38262C23.4733 8.33128 23.5643 8.15437 23.5143 7.98763C23.4105 7.6407 23.289 7.29515 23.1534 6.96098C23.0881 6.79992 22.9079 6.72378 22.7516 6.79113C22.5951 6.85848 22.5212 7.04346 22.5865 7.20452Z" fill="#6942FF"/>
<path d="M15.1715 0.867226C15.4969 0.938746 15.8228 1.0275 16.1399 1.13073C16.1709 1.14073 16.202 1.14555 16.2329 1.14555C16.3631 1.14555 16.4841 1.05939 16.5255 0.924789C16.5767 0.758312 16.4871 0.580629 16.3254 0.527894C15.9896 0.418285 15.6444 0.324361 15.2997 0.248706C15.134 0.212343 14.9706 0.321088 14.9352 0.491875C14.8999 0.662835 15.0056 0.830691 15.1715 0.867226Z" fill="#6942FF"/>
<path d="M21.2807 4.67701C21.3491 4.67701 21.4181 4.65358 21.4752 4.60552C21.6064 4.49493 21.6257 4.2958 21.518 4.16075C21.2952 3.881 21.0562 3.60833 20.8076 3.35027C20.688 3.22641 20.4937 3.22555 20.3733 3.34854C20.2529 3.47154 20.2521 3.67153 20.3716 3.79539C20.6067 4.03914 20.8325 4.29683 21.0429 4.56125C21.1037 4.63756 21.1918 4.67701 21.2807 4.67701Z" fill="#6942FF"/>
<path d="M22.1785 16.9929C22.0357 16.8988 21.8457 16.9417 21.7543 17.0888C21.6409 17.2711 21.5206 17.4521 21.3965 17.6271C21.319 17.7365 21.3205 17.8796 21.3888 17.9864C21.271 17.9454 21.136 17.9802 21.0528 18.0851C20.9328 18.2366 20.8064 18.3871 20.6775 18.5327C20.5632 18.6617 20.5722 18.8615 20.6976 18.9792C20.7565 19.0344 20.8305 19.0617 20.9043 19.0617C20.9877 19.0617 21.0707 19.0269 21.1314 18.9585C21.2678 18.8045 21.4014 18.6451 21.5286 18.4848C21.6155 18.3752 21.6178 18.2247 21.5464 18.1124C21.5783 18.1236 21.6115 18.1292 21.6445 18.1292C21.7392 18.1292 21.8326 18.0843 21.8929 17.9995C22.0243 17.8142 22.1517 17.6223 22.2717 17.4292C22.3631 17.2824 22.3213 17.0869 22.1785 16.9929Z" fill="#6942FF"/>
<path d="M23.9995 11.2155C23.9978 11.042 23.8607 10.9025 23.6925 10.9025H23.6894C23.5199 10.9042 23.3836 11.047 23.3853 11.2215L23.3858 11.3161C23.3858 11.6273 23.3725 11.942 23.3464 12.2516C23.3317 12.4254 23.4569 12.5786 23.6258 12.5937C23.6349 12.5946 23.6437 12.5949 23.6526 12.5949C23.8103 12.5949 23.9444 12.4709 23.9583 12.3062C23.9859 11.9786 24 11.6454 24 11.3159C24 11.2825 23.9998 11.2489 23.9995 11.2155Z" fill="#6942FF"/>
<path d="M23.0614 15.0763C22.9033 15.0124 22.7252 15.0924 22.6631 15.2548C22.5414 15.5735 22.4029 15.8896 22.2519 16.1941C22.1749 16.3495 22.2349 16.5399 22.386 16.6193C22.4307 16.6427 22.4784 16.6539 22.5253 16.6539C22.6371 16.6539 22.7448 16.5909 22.7992 16.4815C22.9592 16.1588 23.1057 15.824 23.2348 15.4862C23.2969 15.3237 23.2192 15.1402 23.0614 15.0763Z" fill="#6942FF"/>
<path d="M19.1794 1.95538C19.0393 1.85715 18.8483 1.89437 18.7527 2.03862C18.6572 2.18287 18.6934 2.37968 18.8335 2.47791C19.1079 2.67041 19.377 2.87911 19.6331 3.09866C19.6905 3.14778 19.7601 3.1719 19.8294 3.1719C19.9175 3.1719 20.0049 3.13313 20.0656 3.05799C20.1741 2.92374 20.1566 2.72451 20.0261 2.61266C19.7549 2.38034 19.47 2.15925 19.1794 1.95538Z" fill="#6942FF"/>
<path d="M23.5701 13.0205C23.4032 12.9894 23.2431 13.1025 23.2125 13.2741C23.1522 13.611 23.0756 13.9487 22.9843 14.2777C22.9378 14.4455 23.0322 14.6205 23.1954 14.6684C23.2235 14.6767 23.252 14.6806 23.2798 14.6806C23.4136 14.6806 23.5364 14.59 23.5749 14.4512C23.6715 14.1029 23.7529 13.7454 23.8167 13.3885C23.8473 13.2169 23.737 13.0521 23.5701 13.0205Z" fill="#6942FF"/>
<path d="M9.1492 1.36261C9.18586 1.36261 9.22303 1.35589 9.25919 1.34159C9.56973 1.21871 9.88982 1.11031 10.2106 1.01897C10.374 0.97244 10.4699 0.798207 10.4247 0.630005C10.3795 0.461803 10.2102 0.363396 10.0468 0.409584C9.70716 0.506266 9.36816 0.621217 9.03902 0.751331C8.88065 0.813891 8.80163 0.996913 8.8624 1.15977C8.90928 1.28541 9.02565 1.36261 9.1492 1.36261Z" fill="#6942FF"/>
<path d="M7.30682 2.31143C7.36256 2.31143 7.41915 2.29575 7.46987 2.263C7.75179 2.08067 8.04544 1.91057 8.34274 1.75754C8.49441 1.67947 8.55602 1.48955 8.48001 1.33341C8.40418 1.17727 8.21952 1.11385 8.06802 1.19209C7.75295 1.35427 7.44175 1.53453 7.14308 1.72774C6.99944 1.82063 6.95609 2.01571 7.04632 2.16358C7.10475 2.25906 7.2047 2.31143 7.30682 2.31143Z" fill="#6942FF"/>
<path d="M10.2905 7.36406C9.88354 7.56483 9.56396 7.84283 9.33228 8.19781L10.3331 8.86131C10.4744 8.65761 10.6496 8.50492 10.8589 8.40305C11.068 8.3012 11.3027 8.25019 11.5629 8.25019C11.8738 8.25019 12.1098 8.31568 12.2709 8.44665C12.4321 8.57763 12.5126 8.76531 12.5126 9.00969C12.5126 9.17858 12.4701 9.34886 12.3854 9.52032C12.3007 9.69197 12.1366 9.89723 11.8935 10.1357L9.60368 12.3618V13.2785H14.0899L14.0898 12.1262H11.5371L12.9023 10.7992C13.2926 10.4268 13.5554 10.0951 13.691 9.80396C13.8267 9.51305 13.8945 9.20165 13.8945 8.86988C13.8945 8.50315 13.8026 8.1845 13.619 7.91392C13.4352 7.64335 13.178 7.43378 12.8472 7.28541C12.5164 7.13702 12.1305 7.06274 11.6896 7.06274C11.1639 7.06274 10.6975 7.16322 10.2905 7.36399L10.2905 7.36406Z" fill="#6942FF"/>
<path d="M17.3036 7.16777L14.5052 11.0438V11.9954H17.7022V13.2789H19.0421V11.9954H20.0088V10.843H19.0421V9.69938H17.7446V10.843H16.1503L18.7454 7.16772L17.3036 7.16777Z" fill="#6942FF"/>
</svg>
