<svg width="24" height="33" viewBox="0 0 24 33" fill="none" xmlns="http://www.w3.org/2000/svg">
<path d="M9.10314 20.6581C9.58051 20.6581 9.96262 20.3632 10.1218 19.9045L11.1085 17.0865V5.87996C11.1085 4.73298 10.2173 3.81555 9.10314 3.81555C7.98897 3.81555 7.09778 4.73304 7.09778 5.87996V17.0865L8.08446 19.9045C8.24388 20.3632 8.65752 20.6581 9.10314 20.6581ZM8.05274 7.15784H8.62558V15.874L8.05274 16.1689V7.15784ZM10.1536 7.15784V16.2017L9.58077 15.9068V7.15789L10.1536 7.15784ZM9.51705 18.8231C9.42158 18.7248 9.26238 18.6592 9.13516 18.6592C9.00793 18.6592 8.84873 18.7248 8.75326 18.8231L8.1802 17.2503L9.13517 16.726L10.0901 17.2503L9.51705 18.8231ZM9.10319 4.79858C9.67602 4.79858 10.1536 5.29 10.1536 5.8799V6.17476H8.05273V5.8799C8.05273 5.29021 8.53032 4.79858 9.10313 4.79858H9.10319Z" fill="#6942FF"/>
<path d="M13.1137 7.19059V7.28887V9.12379C13.1137 9.32036 13.1775 9.51693 13.3047 9.68081C13.05 10.8604 12.4772 14.9237 14.1642 20.0353C14.2914 20.3631 14.6098 20.5924 14.9917 20.625H15.0234C15.4373 20.625 15.7555 20.3956 15.8829 20.068C17.7291 15.1202 17.0288 10.8931 16.7424 9.68072C16.8696 9.54975 16.9333 9.35295 16.9333 9.15639V7.32147C16.9333 7.25587 16.9333 7.1905 16.9016 7.1249C17.5701 6.60057 18.3022 5.51923 17.8565 3.91374C17.347 1.81662 15.7237 0.211188 14.5778 0.0145834C14.2914 -0.051016 14.005 0.112868 13.8775 0.342352C13.7183 0.604522 13.7503 0.89937 13.9413 1.12883C14.0685 1.29272 14.1959 1.62025 14.1322 1.91531C14.1005 2.17748 13.9413 2.40673 13.7183 2.5706L13.6866 2.63574C12.6362 3.48764 12.0951 4.50361 12.1588 5.51934C12.2225 6.17464 12.5407 6.76457 13.1138 7.19043L13.1137 7.19059ZM16.0101 7.45276V8.96018H14.0367V7.45276H16.0101ZM15.0234 19.6423C13.4956 14.9566 14.0048 11.1227 14.2277 9.97585H15.851C16.0739 11.1228 16.6787 15.0875 15.0234 19.6423ZM14.2596 3.42235C14.737 3.09458 15.0236 2.63587 15.0872 2.11177C15.1189 1.8496 15.1189 1.55475 15.0554 1.29258C15.7874 1.784 16.6469 2.86536 16.9971 4.17618C17.4109 5.6836 16.3922 6.3716 16.1376 6.50279H13.9095H13.814C13.4002 6.24062 13.1455 5.88015 13.1138 5.42146C13.0501 4.76594 13.4639 4.04505 14.2597 3.42241L14.2596 3.42235Z" fill="#6942FF"/>
<path d="M15.5647 6.20759C15.6284 6.20759 15.6919 6.20759 15.7556 6.17491C16.1695 6.01103 16.4559 5.68349 16.5832 5.29013C16.8696 4.30704 16.1376 3.09471 16.0421 2.96352C15.9149 2.73403 15.5965 2.66866 15.3735 2.83255C15.1506 2.96352 15.0871 3.29128 15.2463 3.52078C15.4373 3.81564 15.7874 4.60211 15.6602 5.0282C15.6284 5.12649 15.5647 5.22477 15.3737 5.29037C15.1191 5.38866 15.0236 5.68351 15.1191 5.94567C15.1828 6.10932 15.3738 6.20759 15.5647 6.20759Z" fill="#6942FF"/>
<path d="M22.1217 7.71484H18.8115C18.5568 7.71484 18.3341 7.94433 18.3341 8.20626C18.3341 8.46843 18.557 8.69768 18.8115 8.69768H22.1217C22.631 8.69768 23.0447 9.12373 23.0447 9.64782V10.2705L18.7797 10.2707C18.525 10.2707 18.3023 10.5002 18.3023 10.7621C18.3023 11.0243 18.5253 11.2535 18.7797 11.2535H23.0131V22.5583L0.954738 22.5585V11.2538H5.12445C5.37912 11.2538 5.60181 11.0243 5.60181 10.7623C5.60181 10.5002 5.37889 10.2709 5.12445 10.2709L0.954738 10.2707V9.64805C0.954738 9.12372 1.3686 8.69791 1.8777 8.69791H5.15622C5.41089 8.69791 5.63359 8.46843 5.63359 8.20649C5.63359 7.94432 5.41067 7.71507 5.15622 7.71507L1.87793 7.71484C0.859247 7.71484 0 8.56674 0 9.64807V24.0002C0 25.0489 0.827531 25.9335 1.87793 25.9335H8.7851V27.1131C8.7851 28.5549 8.05306 29.8655 6.84346 30.5864C6.52506 30.783 6.36609 31.1761 6.46156 31.5365C6.55703 31.897 6.90717 32.1592 7.25732 32.1592H16.7746C17.1247 32.1592 17.4748 31.9297 17.5703 31.5365C17.6658 31.1761 17.5066 30.7829 17.1884 30.5864C15.9468 29.8657 15.1828 28.5222 15.1828 27.1131V25.9008H22.1218C23.1405 25.9008 23.9998 25.0489 23.9998 23.9675L24 9.64813C24 8.59968 23.1723 7.7149 22.1218 7.7149L22.1217 7.71484ZM16.2331 31.1108H7.82991C9.03952 30.1607 9.77156 28.6533 9.77156 27.0478V25.9008H14.2597V27.0478C14.2597 28.6533 14.9917 30.1606 16.2331 31.1108ZM22.1217 24.9178H1.87765C1.36831 24.9178 0.954682 24.4917 0.954682 23.9676V23.5089H23.0449V23.9676C23.0447 24.492 22.6308 24.9178 22.1215 24.9178H22.1217Z" fill="#6942FF"/>
</svg>
