<svg width="20" height="26" viewBox="0 0 20 26" fill="none" xmlns="http://www.w3.org/2000/svg">
<path d="M16.8608 14.656C16.8608 20.0348 11.3516 23.3486 10.2068 23.9798C10.1433 24.0148 10.0721 24.0331 9.99964 24.0331C9.92721 24.0331 9.85596 24.0148 9.79254 23.9798C8.64679 23.3486 3.13931 20.0348 3.13931 14.656C3.13931 10.368 5.7121 7.36646 10.0001 7.36646C14.288 7.36646 16.8608 10.368 16.8608 14.656Z" stroke="#170F49" stroke-width="1.4" stroke-linecap="round" stroke-linejoin="round"/>
<path d="M6.56973 14.2273C6.56973 15.137 6.93115 16.0096 7.57447 16.6529C8.21779 17.2962 9.09032 17.6576 10.0001 17.6576C10.9099 17.6576 11.7824 17.2962 12.4258 16.6529C13.0691 16.0096 13.4305 15.137 13.4305 14.2273C13.4305 13.3175 13.0691 12.4449 12.4258 11.8016C11.7824 11.1583 10.9099 10.7969 10.0001 10.7969C9.09032 10.7969 8.21779 11.1583 7.57447 11.8016C6.93115 12.4449 6.56973 13.3175 6.56973 14.2273V14.2273Z" stroke="#170F49" stroke-width="1.4" stroke-linecap="round" stroke-linejoin="round"/>
</svg>
