<svg width="24" height="30" viewBox="0 0 24 30" fill="none" xmlns="http://www.w3.org/2000/svg">
<path d="M17.6986 6.34852C16.0202 4.70111 13.7954 3.8975 11.4536 4.01804C7.27719 4.29931 3.92048 7.71467 3.64726 12.0542C3.49114 14.7865 4.54499 17.358 6.53559 19.126C7.82363 20.251 8.52619 21.9386 8.52619 23.7066V25.796C8.52619 26.0772 8.76038 26.3183 9.0336 26.3183H9.1507C9.26779 27.4434 9.65811 29.0104 11.961 29.0104C14.2638 29.0104 14.6541 27.4434 14.7712 26.3183H14.8883C15.1615 26.3183 15.3957 26.0772 15.3957 25.796V23.6664C15.3957 21.9386 16.1764 20.251 17.5034 19.0054C19.2989 17.358 20.3137 15.0276 20.3137 12.5765C20.3527 10.246 19.3769 7.95575 17.6986 6.34852ZM14.4199 23.6664V25.2736H9.61908V23.7066C9.61908 23.5459 9.61907 23.4253 9.58004 23.2646H14.4199C14.4199 23.4253 14.4199 23.5459 14.4199 23.6664ZM12 27.9657C10.751 27.9657 10.3607 27.4434 10.2436 26.3183H13.7564C13.6393 27.4434 13.249 27.9657 12 27.9657ZM16.8399 18.242C15.669 19.3269 14.8493 20.7332 14.537 22.2199H9.46295C9.1507 20.693 8.37007 19.3269 7.23816 18.3224C5.48174 16.7553 4.54499 14.5052 4.70111 12.1345C4.9353 8.35756 7.86266 5.344 11.5316 5.10292C13.5613 4.98238 15.5128 5.70563 16.996 7.11195C18.4792 8.55846 19.2989 10.4871 19.2989 12.6167C19.3379 14.7463 18.4012 16.8357 16.8399 18.242Z" fill="#0F38EB"/>
<path d="M3.60823 18.8044L2.47632 19.7282C2.24213 19.929 2.2031 20.2503 2.39825 20.4511C2.51535 20.5716 2.63244 20.6519 2.78857 20.6519C2.90566 20.6519 3.02276 20.6117 3.10082 20.5314L4.23273 19.6077C4.46692 19.4069 4.50595 19.0856 4.3108 18.8848C4.15467 18.684 3.84242 18.6438 3.60823 18.8044Z" fill="#0F38EB"/>
<path d="M2.4373 14.8666C2.35923 14.5855 2.08601 14.3847 1.81279 14.465L0.40766 14.7863C0.13444 14.8666 -0.0607176 15.1477 0.0173453 15.4289C0.0563768 15.6699 0.290566 15.8305 0.524755 15.8305C0.563786 15.8305 0.602817 15.8305 0.641849 15.8305L2.04698 15.5092C2.35923 15.4289 2.51536 15.1477 2.4373 14.8666Z" fill="#0F38EB"/>
<path d="M0.407663 10.4465L1.8128 10.7678C1.85183 10.7678 1.89086 10.7678 1.92989 10.7678C2.16408 10.7678 2.35924 10.6071 2.4373 10.3661C2.51536 10.085 2.3202 9.80387 2.04698 9.72354L0.641852 9.40225C0.368632 9.32192 0.0954117 9.52273 0.0173488 9.80387C-0.0216827 10.085 0.134443 10.3661 0.407663 10.4465Z" fill="#0F38EB"/>
<path d="M3.60823 6.3879C3.68629 6.46822 3.80339 6.50838 3.92048 6.50838C4.07661 6.50838 4.23273 6.42806 4.3108 6.30757C4.50595 6.0666 4.46692 5.7453 4.23273 5.58465L3.10082 4.66092C2.86663 4.46011 2.55438 4.50027 2.39825 4.74125C2.2031 4.98222 2.24213 5.30352 2.47632 5.50433L3.60823 6.3879Z" fill="#0F38EB"/>
<path d="M7.08204 3.29476C7.16011 3.49567 7.35526 3.57603 7.55042 3.57603C7.62848 3.57603 7.70655 3.57603 7.78461 3.53585C8.05783 3.41531 8.13589 3.09386 8.0188 2.8126L7.39429 1.44645C7.2772 1.16519 6.96495 1.08482 6.69173 1.20537C6.41851 1.32591 6.34044 1.64736 6.45754 1.92862L7.08204 3.29476Z" fill="#0F38EB"/>
<path d="M12 2.53138C12.2732 2.53138 12.5074 2.2903 12.5074 2.00904V0.522349C12.5074 0.241084 12.2732 0 12 0C11.7268 0 11.4926 0.241084 11.4926 0.522349V2.00904C11.4926 2.2903 11.7268 2.53138 12 2.53138Z" fill="#0F38EB"/>
<path d="M16.2544 3.53585C16.3325 3.57603 16.4106 3.57603 16.4886 3.57603C16.6838 3.57603 16.8789 3.45549 16.957 3.29477L17.5815 1.92862C17.6986 1.64736 17.5815 1.36609 17.3473 1.20537C17.0741 1.08483 16.8009 1.20537 16.6447 1.44645L16.0202 2.8126C15.9031 3.09386 15.9812 3.41531 16.2544 3.53585Z" fill="#0F38EB"/>
<path d="M20.0405 6.50838C20.1576 6.50838 20.2747 6.46822 20.3527 6.3879L21.4846 5.46417C21.7188 5.26336 21.7579 4.94206 21.5627 4.70109C21.3675 4.46011 21.0553 4.41995 20.8601 4.62076L19.7282 5.54449C19.494 5.7453 19.455 6.0666 19.6502 6.30757C19.7673 6.46822 19.9234 6.50838 20.0405 6.50838Z" fill="#0F38EB"/>
<path d="M21.5627 10.3661C21.6017 10.6071 21.8359 10.7678 22.0701 10.7678C22.1092 10.7678 22.1482 10.7678 22.1872 10.7678L23.5923 10.4465C23.8656 10.3661 24.0607 10.085 23.9827 9.80387C23.9046 9.52273 23.6314 9.32192 23.3582 9.40225L21.953 9.72354C21.6408 9.80387 21.4846 10.085 21.5627 10.3661Z" fill="#0F38EB"/>
<path d="M23.5923 14.7863L22.1482 14.465C21.875 14.3847 21.6017 14.5855 21.5237 14.8666C21.4456 15.1477 21.6408 15.4289 21.914 15.5092L23.3191 15.8305C23.3582 15.8305 23.3972 15.8305 23.4362 15.8305C23.6704 15.8305 23.8656 15.6699 23.9436 15.4289C24.0217 15.1477 23.8656 14.8666 23.5923 14.7863Z" fill="#0F38EB"/>
<path d="M20.3918 18.8045C20.1576 18.6037 19.8453 18.6438 19.6892 18.8848C19.494 19.1258 19.5331 19.4471 19.7673 19.6479L20.8992 20.5716C20.9772 20.6519 21.0943 20.6921 21.2114 20.6921C21.3675 20.6921 21.5237 20.6118 21.6017 20.4913C21.7969 20.2503 21.7579 19.929 21.5237 19.7282L20.3918 18.8045Z" fill="#0F38EB"/>
<path d="M12 7.23254C9.11168 7.23254 6.76979 9.64339 6.76979 12.6168C6.76979 15.5901 9.11168 18.001 12 18.001C14.8883 18.001 17.2302 15.5901 17.2302 12.6168C17.2302 9.64339 14.8883 7.23254 12 7.23254ZM12 16.9161C9.69715 16.9161 7.82364 14.9874 7.82364 12.6168C7.82364 10.2461 9.69715 8.27724 12 8.27724C14.3029 8.27724 16.1764 10.2059 16.1764 12.5766C16.1764 14.9472 14.3029 16.9161 12 16.9161Z" fill="#0F38EB"/>
<path d="M13.5613 11.13L11.3755 13.3802L10.4387 12.456C10.2436 12.2551 9.93134 12.2551 9.69715 12.456C9.50199 12.6569 9.50199 12.9784 9.69715 13.2194L10.9852 14.5454C11.0633 14.6258 11.2194 14.7061 11.3365 14.7061C11.4536 14.7061 11.6097 14.666 11.6878 14.5454L14.2638 11.8935C14.459 11.6926 14.459 11.3711 14.2638 11.13C14.0687 10.9291 13.7564 10.9291 13.5613 11.13Z" fill="#0F38EB"/>
</svg>
