<svg width="31" height="21" viewBox="0 0 31 21" fill="none" xmlns="http://www.w3.org/2000/svg">
<path d="M5.78648 1.81995H4.16305C3.83305 1.81995 3.56549 2.09538 3.56549 2.4351C3.56549 2.77481 3.83305 3.05025 4.16305 3.05025H5.78648C6.11648 3.05025 6.38404 2.77481 6.38404 2.4351C6.38404 2.09538 6.11648 1.81995 5.78648 1.81995Z" fill="#6942FF"/>
<path d="M10.9693 1.81995H9.34585C9.01585 1.81995 8.74829 2.09538 8.74829 2.4351C8.74829 2.77481 9.01585 3.05025 9.34585 3.05025H10.9693C11.2993 3.05025 11.5668 2.77481 11.5668 2.4351C11.5668 2.09538 11.2993 1.81995 10.9693 1.81995Z" fill="#6942FF"/>
<path d="M16.1521 1.81995H14.5286C14.1986 1.81995 13.9311 2.09538 13.9311 2.4351C13.9311 2.77481 14.1986 3.05025 14.5286 3.05025H16.1521C16.482 3.05025 16.7496 2.77481 16.7496 2.4351C16.7496 2.09538 16.482 1.81995 16.1521 1.81995Z" fill="#6942FF"/>
<path d="M21.3349 1.81995H19.7114C19.3814 1.81995 19.1139 2.09538 19.1139 2.4351C19.1139 2.77481 19.3814 3.05025 19.7114 3.05025H21.3349C21.6648 3.05025 21.9324 2.77481 21.9324 2.4351C21.9324 2.09538 21.6648 1.81995 21.3349 1.81995Z" fill="#6942FF"/>
<path d="M5.78648 15.5959H4.16305C3.83305 15.5959 3.56549 15.8714 3.56549 16.2111C3.56549 16.5508 3.83305 16.8262 4.16305 16.8262H5.78648C6.11648 16.8262 6.38404 16.5508 6.38404 16.2111C6.38404 15.8714 6.11648 15.5959 5.78648 15.5959Z" fill="#6942FF"/>
<path d="M10.9693 15.5959H9.34585C9.01585 15.5959 8.74829 15.8714 8.74829 16.2111C8.74829 16.5508 9.01585 16.8262 9.34585 16.8262H10.9693C11.2993 16.8262 11.5668 16.5508 11.5668 16.2111C11.5668 15.8714 11.2993 15.5959 10.9693 15.5959Z" fill="#6942FF"/>
<path d="M16.1521 15.5959H14.5286C14.1986 15.5959 13.9311 15.8714 13.9311 16.2111C13.9311 16.5508 14.1986 16.8262 14.5286 16.8262H16.1521C16.482 16.8262 16.7496 16.5508 16.7496 16.2111C16.7496 15.8714 16.482 15.5959 16.1521 15.5959Z" fill="#6942FF"/>
<path d="M16.7239 8.80513L11.3494 5.26021C11.1659 5.13827 10.9322 5.13076 10.7402 5.23829C10.5485 5.34612 10.4295 5.55307 10.4295 5.77804V12.8682C10.4295 13.0932 10.5485 13.3001 10.7402 13.4079C10.8298 13.4584 10.9284 13.4833 11.027 13.4833C11.1394 13.4833 11.2514 13.4509 11.3494 13.386L16.7239 9.8408C16.8955 9.72786 16.9991 9.53262 16.9991 9.32296C16.9991 9.11331 16.8955 8.91807 16.7239 8.80513ZM11.6246 11.7433V6.90262L15.2939 9.32296L11.6246 11.7433Z" fill="#6942FF"/>
<path d="M29.4512 8.44839C28.9715 7.95459 28.334 7.68276 27.6559 7.68276C26.9775 7.68276 26.34 7.95459 25.8603 8.44839L25.5023 8.81694V4.13964V0.615149C25.5023 0.275436 25.2347 0 24.9047 0H0.597555C0.267558 0 0 0.275436 0 0.615149V4.13964V14.5071V18.0316C0 18.3713 0.267558 18.6467 0.597555 18.6467H17.8751L17.6667 19.8671C17.6328 20.0647 17.695 20.2669 17.8327 20.4087C17.9456 20.5252 18.0982 20.5889 18.2552 20.5889C18.3405 20.5889 21.606 19.9919 21.69 19.9767C21.7776 19.9608 21.9241 19.8933 22.0089 19.8058L29.4512 12.1447C30.4412 11.1256 30.4409 9.46723 29.4512 8.44839ZM1.19511 1.2303H24.3072V3.52449H1.19511V1.2303ZM1.19511 4.75479H24.3072V10.0472L20.5725 13.8919H1.19511V4.75479ZM18.2523 16.4378L18.0852 17.4164H1.19511V15.1222H19.3774L18.4183 16.1095C18.3331 16.1969 18.2677 16.3478 18.2523 16.4378ZM18.9913 19.2159L19.2304 17.8155L20.3517 18.9698L18.9913 19.2159ZM21.5864 18.501L19.6858 16.5445C22.2098 13.9461 23.3219 12.8013 25.8408 10.2082L27.7415 12.165L21.5864 18.501ZM28.6062 11.2748L28.5865 11.2951L26.6857 9.33838L26.7053 9.31825C27.2124 8.79562 28.0979 8.79502 28.6062 9.31825C29.1299 9.85771 29.1299 10.7354 28.6062 11.2748Z" fill="#6942FF"/>
</svg>
